<svg width="1477" height="1230" viewBox="0 0 1477 1230" fill="none" xmlns="http://www.w3.org/2000/svg">
<path d="M86.2402 559.447C141.616 581.266 258.633 662.457 283.688 812.666C315.008 1000.43 557.846 903.962 791.152 972.435C1023.52 1040.63 910.992 1144.28 1202.91 1128.1C1205.19 1127.97 1207.62 1127.52 1209.8 1126.84C1333.19 1088.06 1388.04 1124.06 1388.04 1176.99" stroke="#FF3F39" stroke-opacity="0.4" stroke-dasharray="9 9"/>
<path d="M86.2402 22.8632C141.616 44.6825 258.633 125.873 283.688 276.082C315.008 463.843 557.846 367.379 791.152 435.851C1023.52 504.048 910.992 607.699 1202.91 591.517C1205.19 591.39 1207.62 590.94 1209.8 590.255C1333.19 551.477 1388.04 587.481 1388.04 640.408" stroke="#FF3F39" stroke-opacity="0.4" stroke-dasharray="9 9"/>
<path d="M67.1797 613.659C123.883 632.157 246.012 706.262 280.898 854.694C324.507 1040.24 560.527 929.581 797.882 984.106C1034.28 1038.41 928.793 1148.52 1219.07 1115.09C1221.34 1114.83 1223.74 1114.23 1225.87 1113.42C1346.47 1067.41 1403.58 1100.1 1407.06 1152.92" stroke="#FF3F39" stroke-opacity="0.4" stroke-dasharray="9 9"/>
<path d="M67.1797 77.0757C123.883 95.5738 246.012 169.678 280.898 318.111C324.507 503.652 560.527 392.998 797.882 447.523C1034.28 501.829 928.793 611.94 1219.07 578.507C1221.34 578.245 1223.74 577.651 1225.87 576.838C1346.47 530.831 1403.58 563.518 1407.06 616.341" stroke="#FF3F39" stroke-opacity="0.4" stroke-dasharray="9 9"/>
<path d="M197.715 374.639C198.596 378.748 199.196 382.955 199.495 387.239L198.997 387.274C199.143 389.368 199.217 391.48 199.217 393.609C199.217 395.738 199.143 397.851 198.997 399.945L199.495 399.98C199.196 404.264 198.596 408.47 197.715 412.58L197.226 412.475C196.335 416.635 195.155 420.696 193.707 424.637L194.176 424.81C192.706 428.81 190.962 432.688 188.964 436.423L188.523 436.187C186.53 439.914 184.283 443.498 181.804 446.919L182.209 447.213C179.721 450.646 177.001 453.916 174.07 457.003L173.708 456.659C170.808 459.712 167.701 462.585 164.408 465.257L164.723 465.645C161.441 468.308 157.974 470.772 154.344 473.019L154.081 472.594C150.509 474.804 146.778 476.803 142.908 478.57L143.116 479.025C139.284 480.775 135.315 482.3 131.231 483.581L131.081 483.104C127.087 484.357 122.981 485.376 118.78 486.144L118.87 486.636C114.742 487.391 110.523 487.905 106.23 488.161L106.2 487.662C104.104 487.788 101.989 487.851 99.8587 487.851C97.7285 487.851 95.614 487.788 93.5172 487.662L93.4873 488.161C89.1948 487.905 84.9758 487.391 80.8474 486.636L80.9373 486.144C76.7368 485.376 72.6305 484.357 68.6366 483.104L68.4869 483.581C64.402 482.3 60.434 480.775 56.6018 479.025L56.8095 478.57C52.939 476.803 49.208 474.804 45.6362 472.594L45.373 473.019C41.7431 470.772 38.2768 468.308 34.9946 465.645L35.3096 465.257C32.0161 462.585 28.9091 459.712 26.0097 456.659L25.6471 457.003C22.7162 453.916 19.9962 450.646 17.5086 447.213L17.9135 446.919C15.4346 443.498 13.1878 439.914 11.1946 436.187L10.7537 436.423C8.7559 432.688 7.01134 428.81 5.54148 424.81L6.0108 424.637C4.56248 420.696 3.38239 416.635 2.49123 412.475L2.00232 412.58C1.12194 408.47 0.521958 404.264 0.22216 399.98L0.72094 399.945C0.574428 397.851 0.5 395.738 0.5 393.609C0.5 391.48 0.574428 389.368 0.72094 387.274L0.22216 387.239C0.521959 382.955 1.12194 378.748 2.00232 374.639L2.49123 374.743C3.38239 370.583 4.56248 366.523 6.0108 362.581L5.54148 362.409C7.01134 358.409 8.7559 354.531 10.7537 350.796L11.1946 351.032C13.1878 347.305 15.4346 343.721 17.9135 340.299L17.5086 340.006C19.9962 336.572 22.7162 333.302 25.6471 330.216L26.0097 330.56C28.9091 327.507 32.0161 324.634 35.3096 321.962L34.9946 321.574C38.2768 318.911 41.7431 316.446 45.373 314.2L45.6362 314.625C49.208 312.414 52.9391 310.416 56.8095 308.648L56.6018 308.194C60.434 306.443 64.4021 304.919 68.4869 303.637L68.6366 304.114C72.6305 302.861 76.7368 301.842 80.9373 301.074L80.8474 300.582C84.9758 299.827 89.1948 299.314 93.4873 299.057L93.5172 299.556C95.614 299.431 97.7285 299.367 99.8587 299.367C101.989 299.367 104.104 299.431 106.2 299.556L106.23 299.057C110.523 299.314 114.742 299.827 118.87 300.582L118.78 301.074C122.981 301.842 127.087 302.861 131.081 304.114L131.231 303.637C135.315 304.919 139.284 306.443 143.116 308.194L142.908 308.648C146.778 310.416 150.509 312.414 154.081 314.625L154.344 314.2C157.974 316.446 161.441 318.911 164.723 321.574L164.408 321.962C167.701 324.634 170.808 327.507 173.708 330.56L174.07 330.216C177.001 333.302 179.721 336.572 182.209 340.006L181.804 340.299C184.283 343.721 186.53 347.305 188.523 351.032L188.964 350.796C190.962 354.531 192.706 358.409 194.176 362.409L193.707 362.581C195.155 366.523 196.335 370.583 197.226 374.743L197.715 374.639Z" stroke="black" stroke-opacity="0.3" stroke-dasharray="13 13"/>
<path d="M197.715 823.37C198.596 827.48 199.196 831.686 199.495 835.971L198.997 836.006C199.143 838.099 199.217 840.212 199.217 842.341C199.217 844.47 199.143 846.583 198.997 848.676L199.495 848.711C199.196 852.996 198.596 857.202 197.715 861.312L197.226 861.207C196.335 865.367 195.155 869.428 193.707 873.369L194.176 873.541C192.706 877.541 190.962 881.419 188.964 885.155L188.523 884.919C186.53 888.645 184.283 892.23 181.804 895.651L182.209 895.945C179.721 899.378 177.001 902.648 174.07 905.735L173.708 905.39C170.808 908.444 167.701 911.316 164.408 913.988L164.723 914.377C161.441 917.039 157.974 919.504 154.344 921.75L154.081 921.325C150.509 923.536 146.778 925.534 142.908 927.302L143.116 927.757C139.284 929.507 135.315 931.032 131.231 932.313L131.081 931.836C127.087 933.089 122.981 934.108 118.78 934.876L118.87 935.368C114.742 936.123 110.523 936.637 106.23 936.893L106.2 936.394C104.104 936.519 101.989 936.583 99.8587 936.583C97.7285 936.583 95.614 936.519 93.5172 936.394L93.4873 936.893C89.1948 936.637 84.9758 936.123 80.8474 935.368L80.9373 934.876C76.7368 934.108 72.6305 933.089 68.6366 931.836L68.4869 932.313C64.402 931.032 60.434 929.507 56.6018 927.757L56.8095 927.302C52.939 925.534 49.208 923.536 45.6362 921.325L45.373 921.75C41.7431 919.504 38.2768 917.039 34.9946 914.377L35.3096 913.988C32.0161 911.316 28.9091 908.444 26.0097 905.39L25.6471 905.735C22.7162 902.648 19.9962 899.378 17.5086 895.945L17.9135 895.651C15.4346 892.23 13.1878 888.645 11.1946 884.919L10.7537 885.155C8.7559 881.419 7.01134 877.541 5.54148 873.541L6.0108 873.369C4.56248 869.428 3.38239 865.367 2.49123 861.207L2.00232 861.312C1.12194 857.202 0.521958 852.996 0.22216 848.711L0.72094 848.676C0.574428 846.583 0.5 844.47 0.5 842.341C0.5 840.212 0.574428 838.099 0.72094 836.006L0.22216 835.971C0.521959 831.686 1.12194 827.48 2.00232 823.37L2.49123 823.475C3.38239 819.315 4.56248 815.254 6.0108 811.313L5.54148 811.141C7.01134 807.141 8.7559 803.263 10.7537 799.527L11.1946 799.763C13.1878 796.037 15.4346 792.452 17.9135 789.031L17.5086 788.737C19.9962 785.304 22.7162 782.034 25.6471 778.947L26.0097 779.292C28.9091 776.238 32.0161 773.366 35.3096 770.694L34.9946 770.305C38.2768 767.643 41.7431 765.178 45.373 762.932L45.6362 763.357C49.208 761.146 52.9391 759.148 56.8095 757.38L56.6018 756.925C60.434 755.175 64.4021 753.65 68.4869 752.369L68.6366 752.846C72.6305 751.593 76.7368 750.574 80.9373 749.806L80.8474 749.314C84.9758 748.559 89.1948 748.045 93.4873 747.789L93.5172 748.288C95.614 748.163 97.7285 748.099 99.8587 748.099C101.989 748.099 104.104 748.163 106.2 748.288L106.23 747.789C110.523 748.045 114.742 748.559 118.87 749.314L118.78 749.806C122.981 750.574 127.087 751.593 131.081 752.846L131.231 752.369C135.315 753.65 139.284 755.175 143.116 756.925L142.908 757.38C146.778 759.148 150.509 761.146 154.081 763.357L154.344 762.932C157.974 765.178 161.441 767.643 164.723 770.305L164.408 770.694C167.701 773.366 170.808 776.238 173.708 779.292L174.07 778.947C177.001 782.034 179.721 785.304 182.209 788.737L181.804 789.031C184.283 792.452 186.53 796.037 188.523 799.763L188.964 799.527C190.962 803.263 192.706 807.141 194.176 811.141L193.707 811.313C195.155 815.254 196.335 819.315 197.226 823.475L197.715 823.37Z" stroke="black" stroke-opacity="0.3" stroke-dasharray="13 13"/>
<path d="M1385.11 1038.22L1452.6 1001.14V1075.29L1385.11 1038.22Z" fill="#FF5858" fill-opacity="0.23"/>
<path d="M1450.2 986.647L1382.72 1023.72V949.569L1450.2 986.647Z" fill="#FF5858" fill-opacity="0.23"/>
<path d="M1337.2 223.074L1442.05 165.64V280.508L1337.2 223.074Z" fill="#FF5858" fill-opacity="0.23"/>
<path d="M1438.87 142.974L1334.02 200.408V85.5399L1438.87 142.974Z" fill="#FF5858" fill-opacity="0.23"/>
<path d="M223.832 899.54L328.684 842.106V956.974L223.832 899.54Z" fill="#FF5858" fill-opacity="0.23"/>
<path d="M325.506 819.44L220.654 876.874V762.006L325.506 819.44Z" fill="#FF5858" fill-opacity="0.23"/>
</svg>
