<svg width="313" height="9" viewBox="0 0 313 9" fill="none" xmlns="http://www.w3.org/2000/svg">
<path d="M312 2.90519C247.681 2.3866 183.915 1.41962 119.479 1.20443C82.4397 1.08073 -28.3262 0.718627 8.33713 1.41702C68.5999 2.56495 130.882 2.52806 191.558 3.30002C215.067 3.59912 238.387 4.00003 261.777 4.42374C270.778 4.5868 277.808 4.86234 263.405 4.75782C199.12 4.29134 135.169 3.25466 70.8833 2.75334C64.0231 2.69984 43.6979 2.67377 50.3058 2.92038C74.5273 3.82432 100.512 4.18044 125.291 4.6819C155.13 5.28574 185.452 5.66286 215.042 6.4586C225.671 6.74444 239.907 6.83362 249.803 7.41528C267.314 8.44459 211.455 7.81153 192.255 7.76455C160.302 7.68635 128.386 7.44541 96.4599 7.27861" stroke="url(#paint0_linear_382_5608)" stroke-width="0.541667" stroke-linecap="round"/>
<defs>
<linearGradient id="paint0_linear_382_5608" x1="1" y1="1" x2="5.36935" y2="41.0795" gradientUnits="userSpaceOnUse">
<stop stop-color="#FF3F39"/>
<stop offset="0.0001" stop-color="#FF3D00"/>
<stop offset="1" stop-color="#E95651"/>
</linearGradient>
</defs>
</svg>
