<svg width="203" height="179" viewBox="0 0 203 179" fill="none" xmlns="http://www.w3.org/2000/svg">
<g filter="url(#filter0_d_382_6115)">
<rect x="30.3555" y="26" width="142.592" height="118.827" rx="16" fill="white"/>
</g>
<path d="M78.1729 74.9992C70.7163 74.9992 66.25 79.5534 66.25 85.1842C66.25 90.8064 70.7163 95.3625 78.1729 95.3625C85.6271 95.3625 90.1001 90.8064 90.1001 85.1842C90.1001 79.5534 85.6276 74.9992 78.1729 74.9992ZM78.1729 93.1772C74.5977 93.1772 71.8817 89.5915 71.8817 85.1837C71.8817 80.7564 74.5977 77.1774 78.1729 77.1774C81.7495 77.1774 84.4646 80.7564 84.4646 85.1837C84.4646 89.5915 81.7495 93.1772 78.1729 93.1772Z" fill="#E60012"/>
<path d="M111.603 75.7021H91.1172V77.9883H98.9628V94.5387H104.882V77.9883H111.603V75.7021Z" fill="#E60012"/>
<path d="M134.047 75.7021H113.562V77.9883H120.28V94.5387H126.187V77.9883H134.047V75.7021Z" fill="#E60012"/>
<path d="M55.6105 92.2769C54.9871 92.2769 54.4807 91.7743 54.4807 91.1534V75.7042H48.8086V92.2879C48.8086 93.5241 49.8162 94.5231 51.0662 94.5231H65.571V92.2765H55.6105V92.2769Z" fill="#E60012"/>
<path d="M143.123 77.9522H154.046V75.7021H138.574C137.328 75.7021 136.312 76.7416 136.312 77.9664V92.2887C136.312 93.524 137.328 94.523 138.574 94.523H154.046V92.3015H143.123C142.502 92.3015 141.994 91.8046 141.994 91.1831V85.637H153.877V83.4398H141.994V79.0729C141.994 78.4581 142.502 77.9522 143.123 77.9522Z" fill="#E60012"/>
<defs>
<filter id="filter0_d_382_6115" x="0.355469" y="0" width="202.592" height="178.827" filterUnits="userSpaceOnUse" color-interpolation-filters="sRGB">
<feFlood flood-opacity="0" result="BackgroundImageFix"/>
<feColorMatrix in="SourceAlpha" type="matrix" values="0 0 0 0 0 0 0 0 0 0 0 0 0 0 0 0 0 0 127 0" result="hardAlpha"/>
<feOffset dy="4"/>
<feGaussianBlur stdDeviation="15"/>
<feColorMatrix type="matrix" values="0 0 0 0 0.391667 0 0 0 0 0.391667 0 0 0 0 0.391667 0 0 0 0.06 0"/>
<feBlend mode="normal" in2="BackgroundImageFix" result="effect1_dropShadow_382_6115"/>
<feBlend mode="normal" in="SourceGraphic" in2="effect1_dropShadow_382_6115" result="shape"/>
</filter>
</defs>
</svg>
