<svg width="100" height="18" viewBox="0 0 100 18" fill="none" xmlns="http://www.w3.org/2000/svg">
<path d="M7.40156 2.03979C7.59363 1.65068 7.68967 1.45612 7.82004 1.39396C7.93347 1.33987 8.06525 1.33987 8.17869 1.39396C8.30906 1.45612 8.4051 1.65068 8.59717 2.03979L10.4194 5.73143C10.4761 5.84631 10.5045 5.90374 10.5459 5.94834C10.5826 5.98783 10.6266 6.01982 10.6754 6.04255C10.7306 6.06821 10.794 6.07748 10.9208 6.09601L14.9968 6.69178C15.4261 6.75452 15.6407 6.78589 15.74 6.89073C15.8264 6.98194 15.8671 7.10727 15.8506 7.23184C15.8317 7.37501 15.6763 7.52634 15.3656 7.82901L12.4172 10.7007C12.3253 10.7902 12.2794 10.835 12.2497 10.8882C12.2235 10.9354 12.2066 10.9872 12.2001 11.0408C12.1928 11.1013 12.2036 11.1645 12.2253 11.291L12.921 15.3471C12.9944 15.7749 13.031 15.9888 12.9621 16.1158C12.9021 16.2262 12.7955 16.3037 12.6719 16.3266C12.5299 16.3529 12.3378 16.2519 11.9536 16.0499L8.30966 14.1336C8.19613 14.0738 8.13936 14.044 8.07955 14.0323C8.0266 14.0219 7.97213 14.0219 7.91918 14.0323C7.85937 14.044 7.8026 14.0738 7.68906 14.1336L4.04512 16.0499C3.66095 16.2519 3.46886 16.3529 3.32683 16.3266C3.20325 16.3037 3.09662 16.2262 3.03663 16.1158C2.96768 15.9888 3.00437 15.7749 3.07774 15.3471L3.77342 11.291C3.79511 11.1645 3.80595 11.1013 3.79862 11.0408C3.79212 10.9872 3.77528 10.9354 3.74902 10.8882C3.71937 10.835 3.67341 10.7902 3.5815 10.7007L0.633148 7.82901C0.322401 7.52634 0.167028 7.37501 0.148121 7.23184C0.131671 7.10727 0.17231 6.98194 0.258725 6.89073C0.358045 6.78589 0.572658 6.75452 1.00189 6.69178L5.07794 6.09601C5.2047 6.07748 5.26808 6.06821 5.32328 6.04255C5.37215 6.01982 5.41615 5.98783 5.45284 5.94834C5.49427 5.90374 5.52262 5.84631 5.57933 5.73143L7.40156 2.03979Z" fill="#F4D87C"/>
<path d="M28.1086 2.03979C28.3007 1.65068 28.3967 1.45612 28.5271 1.39396C28.6405 1.33987 28.7723 1.33987 28.8857 1.39396C29.0161 1.45612 29.1121 1.65068 29.3042 2.03979L31.1264 5.73143C31.1831 5.84631 31.2115 5.90374 31.2529 5.94834C31.2896 5.98783 31.3336 6.01982 31.3825 6.04255C31.4377 6.06821 31.5011 6.07748 31.6278 6.09601L35.7039 6.69178C36.1331 6.75452 36.3477 6.78589 36.447 6.89073C36.5334 6.98194 36.5741 7.10727 36.5576 7.23184C36.5387 7.37501 36.3834 7.52634 36.0726 7.82901L33.1243 10.7007C33.0323 10.7902 32.9864 10.835 32.9567 10.8882C32.9305 10.9354 32.9136 10.9872 32.9071 11.0408C32.8998 11.1013 32.9106 11.1645 32.9323 11.291L33.628 15.3471C33.7014 15.7749 33.7381 15.9888 33.6691 16.1158C33.6091 16.2262 33.5025 16.3037 33.3789 16.3266C33.2369 16.3529 33.0448 16.2519 32.6606 16.0499L29.0167 14.1336C28.9032 14.0738 28.8464 14.044 28.7866 14.0323C28.7336 14.0219 28.6792 14.0219 28.6262 14.0323C28.5664 14.044 28.5096 14.0738 28.3961 14.1336L24.7521 16.0499C24.368 16.2519 24.1759 16.3529 24.0339 16.3266C23.9103 16.3037 23.8036 16.2262 23.7437 16.1158C23.6747 15.9888 23.7114 15.7749 23.7848 15.3471L24.4805 11.291C24.5021 11.1645 24.513 11.1013 24.5056 11.0408C24.4992 10.9872 24.4823 10.9354 24.4561 10.8882C24.4264 10.835 24.3804 10.7902 24.2885 10.7007L21.3402 7.82901C21.0294 7.52634 20.8741 7.37501 20.8552 7.23184C20.8387 7.10727 20.8793 6.98194 20.9658 6.89073C21.0651 6.78589 21.2797 6.75452 21.7089 6.69178L25.785 6.09601C25.9117 6.07748 25.9751 6.06821 26.0303 6.04255C26.0792 6.01982 26.1232 5.98783 26.1599 5.94834C26.2013 5.90374 26.2297 5.84631 26.2864 5.73143L28.1086 2.03979Z" fill="#F4D87C"/>
<path d="M48.8195 2.03979C49.0116 1.65068 49.1076 1.45612 49.238 1.39396C49.3514 1.33987 49.4832 1.33987 49.5967 1.39396C49.727 1.45612 49.8231 1.65068 50.0151 2.03979L51.8374 5.73143C51.8941 5.84631 51.9224 5.90374 51.9639 5.94834C52.0005 5.98783 52.0445 6.01982 52.0934 6.04255C52.1486 6.06821 52.212 6.07748 52.3388 6.09601L56.4148 6.69178C56.844 6.75452 57.0587 6.78589 57.158 6.89073C57.2444 6.98194 57.285 7.10727 57.2686 7.23184C57.2497 7.37501 57.0943 7.52634 56.7835 7.82901L53.8352 10.7007C53.7433 10.7902 53.6973 10.835 53.6677 10.8882C53.6414 10.9354 53.6246 10.9872 53.6181 11.0408C53.6107 11.1013 53.6216 11.1645 53.6433 11.291L54.339 15.3471C54.4123 15.7749 54.449 15.9888 54.3801 16.1158C54.3201 16.2262 54.2134 16.3037 54.0899 16.3266C53.9478 16.3529 53.7558 16.2519 53.3716 16.0499L49.7276 14.1336C49.6141 14.0738 49.5573 14.044 49.4975 14.0323C49.4446 14.0219 49.3901 14.0219 49.3371 14.0323C49.2773 14.044 49.2206 14.0738 49.107 14.1336L45.4631 16.0499C45.0789 16.2519 44.8868 16.3529 44.7448 16.3266C44.6212 16.3037 44.5146 16.2262 44.4546 16.1158C44.3857 15.9888 44.4223 15.7749 44.4957 15.3471L45.1914 11.291C45.2131 11.1645 45.2239 11.1013 45.2166 11.0408C45.2101 10.9872 45.1932 10.9354 45.167 10.8882C45.1373 10.835 45.0914 10.7902 44.9995 10.7007L42.0511 7.82901C41.7404 7.52634 41.585 7.37501 41.5661 7.23184C41.5496 7.10727 41.5903 6.98194 41.6767 6.89073C41.776 6.78589 41.9906 6.75452 42.4199 6.69178L46.4959 6.09601C46.6227 6.07748 46.6861 6.06821 46.7412 6.04255C46.7901 6.01982 46.8341 5.98783 46.8708 5.94834C46.9122 5.90374 46.9406 5.84631 46.9973 5.73143L48.8195 2.03979Z" fill="#F4D87C"/>
<path d="M69.5305 2.03979C69.7225 1.65068 69.8186 1.45612 69.9489 1.39396C70.0624 1.33987 70.1942 1.33987 70.3076 1.39396C70.438 1.45612 70.534 1.65068 70.7261 2.03979L72.5483 5.73143C72.605 5.84631 72.6334 5.90374 72.6748 5.94834C72.7115 5.98783 72.7555 6.01982 72.8044 6.04255C72.8595 6.06821 72.9229 6.07748 73.0497 6.09601L77.1257 6.69178C77.555 6.75452 77.7696 6.78589 77.8689 6.89073C77.9553 6.98194 77.996 7.10727 77.9795 7.23184C77.9606 7.37501 77.8052 7.52634 77.4945 7.82901L74.5461 10.7007C74.4542 10.7902 74.4083 10.835 74.3786 10.8882C74.3524 10.9354 74.3355 10.9872 74.329 11.0408C74.3217 11.1013 74.3325 11.1645 74.3542 11.291L75.0499 15.3471C75.1233 15.7749 75.16 15.9888 75.091 16.1158C75.031 16.2262 74.9244 16.3037 74.8008 16.3266C74.6588 16.3529 74.4667 16.2519 74.0825 16.0499L70.4386 14.1336C70.325 14.0738 70.2683 14.044 70.2085 14.0323C70.1555 14.0219 70.101 14.0219 70.0481 14.0323C69.9883 14.044 69.9315 14.0738 69.818 14.1336L66.174 16.0499C65.7899 16.2519 65.5978 16.3529 65.4557 16.3266C65.3322 16.3037 65.2255 16.2262 65.1655 16.1158C65.0966 15.9888 65.1333 15.7749 65.2067 15.3471L65.9023 11.291C65.924 11.1645 65.9349 11.1013 65.9275 11.0408C65.921 10.9872 65.9042 10.9354 65.8779 10.8882C65.8483 10.835 65.8023 10.7902 65.7104 10.7007L62.7621 7.82901C62.4513 7.52634 62.2959 7.37501 62.277 7.23184C62.2606 7.10727 62.3012 6.98194 62.3876 6.89073C62.487 6.78589 62.7016 6.75452 63.1308 6.69178L67.2068 6.09601C67.3336 6.07748 67.397 6.06821 67.4522 6.04255C67.5011 6.01982 67.5451 5.98783 67.5817 5.94834C67.6232 5.90374 67.6515 5.84631 67.7082 5.73143L69.5305 2.03979Z" fill="#F4D87C"/>
<path d="M90.257 2.2312C90.4491 1.84208 90.5451 1.64752 90.6755 1.58536C90.7889 1.53128 90.9207 1.53128 91.0342 1.58536C91.1645 1.64752 91.2606 1.84208 91.4526 2.2312L93.2749 5.92284C93.3316 6.03771 93.3599 6.09515 93.4014 6.13975C93.438 6.17923 93.482 6.21123 93.5309 6.23395C93.5861 6.25962 93.6495 6.26888 93.7763 6.28741L97.8523 6.88319C98.2815 6.94593 98.4961 6.9773 98.5955 7.08213C98.6819 7.17334 98.7225 7.29868 98.7061 7.42325C98.6872 7.56642 98.5318 7.71775 98.221 8.02042L95.2727 10.8921C95.1808 10.9816 95.1348 11.0264 95.1052 11.0797C95.0789 11.1268 95.0621 11.1786 95.0556 11.2322C95.0482 11.2927 95.0591 11.3559 95.0808 11.4824L95.7765 15.5385C95.8498 15.9663 95.8865 16.1802 95.8176 16.3072C95.7576 16.4176 95.6509 16.4951 95.5274 16.518C95.3853 16.5443 95.1933 16.4433 94.8091 16.2413L91.1651 14.325C91.0516 14.2653 90.9948 14.2354 90.935 14.2237C90.8821 14.2133 90.8276 14.2133 90.7746 14.2237C90.7148 14.2354 90.6581 14.2653 90.5445 14.325L86.9006 16.2413C86.5164 16.4433 86.3243 16.5443 86.1823 16.518C86.0587 16.4951 85.9521 16.4176 85.8921 16.3072C85.8232 16.1802 85.8598 15.9663 85.9332 15.5385L86.6289 11.4824C86.6506 11.3559 86.6614 11.2927 86.6541 11.2322C86.6476 11.1786 86.6307 11.1268 86.6045 11.0797C86.5748 11.0264 86.5289 10.9816 86.437 10.8921L83.4886 8.02042C83.1779 7.71775 83.0225 7.56642 83.0036 7.42325C82.9871 7.29868 83.0278 7.17334 83.1142 7.08213C83.2135 6.9773 83.4281 6.94593 83.8574 6.88319L87.9334 6.28741C88.0602 6.26888 88.1236 6.25962 88.1787 6.23395C88.2276 6.21123 88.2716 6.17923 88.3083 6.13975C88.3497 6.09515 88.3781 6.03771 88.4348 5.92284L90.257 2.2312Z" stroke="#F4D87C" stroke-linecap="round" stroke-linejoin="round"/>
<mask id="mask0_382_5685" style="mask-type:alpha" maskUnits="userSpaceOnUse" x="82" y="0" width="9" height="18">
<path d="M82 17.8534V0.353394H91V17.8534H82Z" fill="#D9D9D9"/>
</mask>
<g mask="url(#mask0_382_5685)">
<path d="M90.2414 2.2312C90.4335 1.84208 90.5295 1.64752 90.6599 1.58536C90.7733 1.53128 90.9051 1.53128 91.0185 1.58536C91.1489 1.64752 91.2449 1.84208 91.437 2.2312L93.2592 5.92284C93.3159 6.03771 93.3443 6.09515 93.3857 6.13975C93.4224 6.17923 93.4664 6.21123 93.5153 6.23395C93.5705 6.25962 93.6339 6.26888 93.7606 6.28741L97.8367 6.88319C98.2659 6.94593 98.4805 6.9773 98.5798 7.08213C98.6663 7.17334 98.7069 7.29868 98.6904 7.42325C98.6715 7.56642 98.5162 7.71775 98.2054 8.02042L95.2571 10.8921C95.1652 10.9816 95.1192 11.0264 95.0896 11.0797C95.0633 11.1268 95.0465 11.1786 95.04 11.2322C95.0326 11.2927 95.0435 11.3559 95.0651 11.4824L95.7608 15.5385C95.8342 15.9663 95.8709 16.1802 95.8019 16.3072C95.742 16.4176 95.6353 16.4951 95.5117 16.518C95.3697 16.5443 95.1776 16.4433 94.7935 16.2413L91.1495 14.325C91.036 14.2653 90.9792 14.2354 90.9194 14.2237C90.8664 14.2133 90.812 14.2133 90.759 14.2237C90.6992 14.2354 90.6424 14.2653 90.5289 14.325L86.885 16.2413C86.5008 16.4433 86.3087 16.5443 86.1667 16.518C86.0431 16.4951 85.9365 16.4176 85.8765 16.3072C85.8075 16.1802 85.8442 15.9663 85.9176 15.5385L86.6133 11.4824C86.635 11.3559 86.6458 11.2927 86.6385 11.2322C86.632 11.1786 86.6151 11.1268 86.5889 11.0797C86.5592 11.0264 86.5133 10.9816 86.4213 10.8921L83.473 8.02042C83.1622 7.71775 83.0069 7.56642 82.988 7.42325C82.9715 7.29868 83.0122 7.17334 83.0986 7.08213C83.1979 6.9773 83.4125 6.94593 83.8417 6.88319L87.9178 6.28741C88.0445 6.26888 88.1079 6.25962 88.1631 6.23395C88.212 6.21123 88.256 6.17923 88.2927 6.13975C88.3341 6.09515 88.3625 6.03771 88.4192 5.92284L90.2414 2.2312Z" fill="#F4D87C"/>
</g>
</svg>
