<svg width="215" height="10" viewBox="0 0 215 10" fill="none" xmlns="http://www.w3.org/2000/svg">
<path d="M214 3.17736C169.949 2.58468 126.276 1.47957 82.1446 1.23363C56.777 1.09226 -19.0852 0.678431 6.02511 1.47659C47.2983 2.78851 89.9548 2.74636 131.511 3.62859C147.612 3.97042 163.583 4.42861 179.603 4.91285C185.768 5.0992 190.582 5.4141 180.718 5.29465C136.69 4.76153 92.8907 3.57675 48.8622 3.00382C44.1637 2.94268 30.2432 2.91288 34.769 3.19472C51.358 4.2278 69.1548 4.63479 86.1257 5.20788C106.562 5.89799 127.329 6.32898 147.595 7.2384C154.874 7.56507 164.624 7.667 171.402 8.33175C183.395 9.5081 145.138 8.78461 131.988 8.73091C110.104 8.64154 88.2449 8.36619 66.3793 8.17556" stroke="url(#paint0_linear_382_6126)" stroke-width="0.541667" stroke-linecap="round"/>
<defs>
<linearGradient id="paint0_linear_382_6126" x1="1" y1="1" x2="9.16156" y2="45.8648" gradientUnits="userSpaceOnUse">
<stop stop-color="white"/>
<stop offset="0.0001" stop-color="white"/>
<stop offset="1" stop-color="white"/>
</linearGradient>
</defs>
</svg>
